
<svg version="1.1" xmlns="http://www.w3.org/2000/svg"  preserveAspectRatio="xMidYMid meet" viewBox="82.0952380952381 50.54761904761905 193.2857142857143 423.04761904761915" width="189.29" height="419.05">
<defs>
<path d="M181.9 250.36L181.9 220.6L122.38 213.45L228.33 180.12L122.38 172.98L228.33 140.83L122.38 132.5L181.9 117.02L181.9 88.45" id="c6dCvJMd0"></path>
<path d="M239.05 51.55L239.05 88.45L122.38 88.45L122.38 51.55L239.05 51.55Z" id="bqokQlksI"></path>
<path d="M236.43 250.36L236.43 287.26L119.76 287.26L119.76 250.36L236.43 250.36Z" id="d32qXx9C9I"></path>
<path d="M181.9 449.17L181.9 419.4L122.38 412.26L228.33 378.93L122.38 371.79L228.33 339.64L122.38 331.31L181.9 315.83L181.9 287.26" id="e8hi3ei7M"></path>
<path d="M250.95 470.6L272.38 449.17L233.1 449.17L100.95 449.17" id="aQQZLXKRk"></path>
<path d="M180.71 470.6L198.57 449.17" id="a1YcsT39t2"></path>
<path d="M216.19 470.6L234.05 449.17" id="e3io3HivO1"></path>
<path d="M145.71 470.6L163.57 449.17" id="a40h2xxDQ6"></path>
<path d="M110.83 470.6L128.69 449.17" id="a4Kz6CvfZ1"></path>
<path d="M83.1 470.6L100.95 449.17" id="a1ON3U0kaU"></path>
</defs><g><g><g><use xlink:href="#c6dCvJMd0" opacity="1" fill-opacity="0" stroke="#000000" stroke-width="1" stroke-opacity="1"></use></g></g><g><g><use xlink:href="#bqokQlksI" opacity="1" fill-opacity="0" stroke="#000000" stroke-width="1" stroke-opacity="1"></use></g></g><g><g><use xlink:href="#d32qXx9C9I" opacity="1" fill-opacity="0" stroke="#000000" stroke-width="1" stroke-opacity="1"></use></g></g><g><g><use xlink:href="#e8hi3ei7M" opacity="1" fill-opacity="0" stroke="#000000" stroke-width="1" stroke-opacity="1"></use></g></g><g><g><use xlink:href="#aQQZLXKRk" opacity="1" fill-opacity="0" stroke="#000000" stroke-width="1" stroke-opacity="1"></use></g></g><g><g><use xlink:href="#a1YcsT39t2" opacity="1" fill-opacity="0" stroke="#000000" stroke-width="1" stroke-opacity="1"></use></g></g><g><g><use xlink:href="#e3io3HivO1" opacity="1" fill-opacity="0" stroke="#000000" stroke-width="1" stroke-opacity="1"></use></g></g><g><g><use xlink:href="#a40h2xxDQ6" opacity="1" fill-opacity="0" stroke="#000000" stroke-width="1" stroke-opacity="1"></use></g></g><g><g><use xlink:href="#a4Kz6CvfZ1" opacity="1" fill-opacity="0" stroke="#000000" stroke-width="1" stroke-opacity="1"></use></g></g><g><g><use xlink:href="#a1ON3U0kaU" opacity="1" fill-opacity="0" stroke="#000000" stroke-width="1" stroke-opacity="1"></use></g></g></g></svg>